<svg width="25" height="24" viewBox="0 0 25 24" fill="none" xmlns="http://www.w3.org/2000/svg">
<g clip-path="url(#clip0_649_1240)">
<path d="M1.5 20V19C1.5 17.1435 2.2375 15.363 3.55025 14.0503C4.86301 12.7375 6.64348 12 8.5 12C10.3565 12 12.137 12.7375 13.4497 14.0503C14.7625 15.363 15.5 17.1435 15.5 19V20" stroke="#C0BDC8" stroke-width="1.5" stroke-linecap="round"/>
<path d="M13.5 14C13.5 12.6739 14.0268 11.4021 14.9645 10.4645C15.9021 9.52678 17.1739 9 18.5 9C19.1566 9 19.8068 9.12933 20.4134 9.3806C21.02 9.63188 21.5712 10.0002 22.0355 10.4645C22.4998 10.9288 22.8681 11.48 23.1194 12.0866C23.3707 12.6932 23.5 13.3434 23.5 14V14.5" stroke="#C0BDC8" stroke-width="1.5" stroke-linecap="round"/>
<path d="M8.5 12C9.56087 12 10.5783 11.5786 11.3284 10.8284C12.0786 10.0783 12.5 9.06087 12.5 8C12.5 6.93913 12.0786 5.92172 11.3284 5.17157C10.5783 4.42143 9.56087 4 8.5 4C7.43913 4 6.42172 4.42143 5.67157 5.17157C4.92143 5.92172 4.5 6.93913 4.5 8C4.5 9.06087 4.92143 10.0783 5.67157 10.8284C6.42172 11.5786 7.43913 12 8.5 12ZM18.5 9C19.2956 9 20.0587 8.68393 20.6213 8.12132C21.1839 7.55871 21.5 6.79565 21.5 6C21.5 5.20435 21.1839 4.44129 20.6213 3.87868C20.0587 3.31607 19.2956 3 18.5 3C17.7044 3 16.9413 3.31607 16.3787 3.87868C15.8161 4.44129 15.5 5.20435 15.5 6C15.5 6.79565 15.8161 7.55871 16.3787 8.12132C16.9413 8.68393 17.7044 9 18.5 9Z" stroke="#C0BDC8" stroke-width="1.5" stroke-linecap="round" stroke-linejoin="round"/>
</g>
<defs>
<clipPath id="clip0_649_1240">
<rect width="24" height="24" fill="white" transform="translate(0.5)"/>
</clipPath>
</defs>
</svg>
