<svg width="24" height="24" viewBox="0 0 24 24" fill="none" xmlns="http://www.w3.org/2000/svg">
<path d="M13.992 17H16.992M16.992 17H19.992M16.992 17V14M16.992 17V20" stroke="#C0BDC8" stroke-width="1.5" stroke-linecap="round" stroke-linejoin="round"/>
<path d="M4 9.4V4.6C4 4.44087 4.06321 4.28826 4.17574 4.17574C4.28826 4.06321 4.44087 4 4.6 4H9.4C9.55913 4 9.71174 4.06321 9.82426 4.17574C9.93679 4.28826 10 4.44087 10 4.6V9.4C10 9.55913 9.93679 9.71174 9.82426 9.82426C9.71174 9.93679 9.55913 10 9.4 10H4.6C4.44087 10 4.28826 9.93679 4.17574 9.82426C4.06321 9.71174 4 9.55913 4 9.4ZM4 19.4V14.6C4 14.4409 4.06321 14.2883 4.17574 14.1757C4.28826 14.0632 4.44087 14 4.6 14H9.4C9.55913 14 9.71174 14.0632 9.82426 14.1757C9.93679 14.2883 10 14.4409 10 14.6V19.4C10 19.5591 9.93679 19.7117 9.82426 19.8243C9.71174 19.9368 9.55913 20 9.4 20H4.6C4.44087 20 4.28826 19.9368 4.17574 19.8243C4.06321 19.7117 4 19.5591 4 19.4ZM14 9.4V4.6C14 4.44087 14.0632 4.28826 14.1757 4.17574C14.2883 4.06321 14.4409 4 14.6 4H19.4C19.5591 4 19.7117 4.06321 19.8243 4.17574C19.9368 4.28826 20 4.44087 20 4.6V9.4C20 9.55913 19.9368 9.71174 19.8243 9.82426C19.7117 9.93679 19.5591 10 19.4 10H14.6C14.4409 10 14.2883 9.93679 14.1757 9.82426C14.0632 9.71174 14 9.55913 14 9.4Z" stroke="#C0BDC8" stroke-width="1.5"/>
</svg>
