<svg width="177" height="63" viewBox="0 0 177 63" fill="none" xmlns="http://www.w3.org/2000/svg">
<path d="M16.464 41.384C17.808 41.384 18.992 41.192 20.016 40.808C21.072 40.392 22.048 39.752 22.944 38.888L26.928 43.208C24.496 45.992 20.944 47.384 16.272 47.384C13.36 47.384 10.784 46.824 8.544 45.704C6.304 44.552 4.576 42.968 3.36 40.952C2.144 38.936 1.536 36.648 1.536 34.088C1.536 31.56 2.128 29.288 3.312 27.272C4.528 25.224 6.176 23.64 8.256 22.52C10.368 21.368 12.736 20.792 15.36 20.792C17.824 20.792 20.064 21.32 22.08 22.376C24.096 23.4 25.696 24.904 26.88 26.888C28.096 28.84 28.704 31.16 28.704 33.848L9.6 37.544C10.144 38.824 10.992 39.784 12.144 40.424C13.328 41.064 14.768 41.384 16.464 41.384ZM15.36 26.456C13.472 26.456 11.936 27.064 10.752 28.28C9.568 29.496 8.944 31.176 8.88 33.32L21.456 30.872C21.104 29.528 20.384 28.456 19.296 27.656C18.208 26.856 16.896 26.456 15.36 26.456ZM58.9005 21.176L48.0045 47H40.2765L29.4285 21.176H37.1565L44.3085 38.744L51.7005 21.176H58.9005ZM74.2609 41.384C75.6049 41.384 76.7889 41.192 77.8129 40.808C78.8689 40.392 79.8449 39.752 80.7409 38.888L84.7249 43.208C82.2929 45.992 78.7409 47.384 74.0689 47.384C71.1569 47.384 68.5809 46.824 66.3409 45.704C64.1009 44.552 62.3729 42.968 61.1569 40.952C59.9409 38.936 59.3329 36.648 59.3329 34.088C59.3329 31.56 59.9249 29.288 61.1089 27.272C62.3249 25.224 63.9729 23.64 66.0529 22.52C68.1649 21.368 70.5329 20.792 73.1569 20.792C75.6209 20.792 77.8609 21.32 79.8769 22.376C81.8929 23.4 83.4929 24.904 84.6769 26.888C85.8929 28.84 86.5009 31.16 86.5009 33.848L67.3969 37.544C67.9409 38.824 68.7889 39.784 69.9409 40.424C71.1249 41.064 72.5649 41.384 74.2609 41.384ZM73.1569 26.456C71.2689 26.456 69.7329 27.064 68.5489 28.28C67.3649 29.496 66.7409 31.176 66.6769 33.32L79.2529 30.872C78.9009 29.528 78.1809 28.456 77.0929 27.656C76.0049 26.856 74.6929 26.456 73.1569 26.456ZM107.23 20.792C110.43 20.792 113.006 21.752 114.958 23.672C116.942 25.592 117.934 28.44 117.934 32.216V47H110.446V33.368C110.446 31.32 109.998 29.8 109.102 28.808C108.206 27.784 106.91 27.272 105.214 27.272C103.326 27.272 101.822 27.864 100.702 29.048C99.5821 30.2 99.0221 31.928 99.0221 34.232V47H91.5341V21.176H98.6861V24.2C99.6781 23.112 100.91 22.28 102.382 21.704C103.854 21.096 105.47 20.792 107.23 20.792ZM140.274 45.752C139.538 46.296 138.626 46.712 137.538 47C136.482 47.256 135.378 47.384 134.226 47.384C131.122 47.384 128.738 46.6 127.074 45.032C125.41 43.464 124.578 41.16 124.578 38.12V15.464H132.066V21.752H138.45V27.512H132.066V38.024C132.066 39.112 132.338 39.96 132.882 40.568C133.426 41.144 134.21 41.432 135.234 41.432C136.386 41.432 137.41 41.112 138.306 40.472L140.274 45.752ZM160.199 20.792C163.399 20.792 165.975 21.752 167.927 23.672C169.911 25.592 170.903 28.44 170.903 32.216V47H163.415V33.368C163.415 31.32 162.967 29.8 162.071 28.808C161.175 27.784 159.879 27.272 158.183 27.272C156.295 27.272 154.791 27.864 153.671 29.048C152.551 30.2 151.991 31.928 151.991 34.232V47H144.503V11.384H151.991V23.864C152.983 22.872 154.183 22.12 155.591 21.608C156.999 21.064 158.535 20.792 160.199 20.792Z" fill="#2A2D7C"/>
</svg>
